<?xml version="1.0" encoding="UTF-8" standalone="no"?>
<!-- Created with Inkscape (http://www.inkscape.org/) -->
<!--ESTE SVG VA EN CRUDO, NO TIENE ESTILOS, HAY QUE DARLE LOS ESTILOS AL LLAMARLO-->
<svg xml:space="preserve" id="logo" version="1.1" viewBox="0 0 20.3 20.3" xmlns:xlink="http://www.w3.org/1999/xlink"
  xmlns="http://www.w3.org/2000/svg" xmlns:svg="http://www.w3.org/2000/svg">
  <defs id="defs2">
    <linearGradient id="linearGradient76208">
      <stop offset="0.65" class="stop_inicio" />
      <stop offset="1" class="stop_final" />
    </linearGradient>
    <radialGradient xlink:href="#linearGradient76208" id="radialGradient76210-7-6-6" cx="139.36299" cy="157.79147"
      fx="139.36299" fy="157.79147" r="9.9529543" gradientUnits="userSpaceOnUse"
      gradientTransform="matrix(0.92987653,0,0,0.92987653,9.7848923,11.064257)" />
    <filter style="color-interpolation-filters:sRGB" id="filter84299" x="-0.048" y="-0.048" width="1.096"
      height="1.096">
      <feGaussianBlur stdDeviation="0.37020073" id="feGaussianBlur84301" />
    </filter>
  </defs>
  <g transform="translate(-129.23178,-147.667331)">
    <circle class="circulo"
      cx="139.37527" cy="157.79083" r="9.2550182" />
    <g id="g42829-8-6-1-8" transform="matrix(0.03872197,0,0,0.03872197,129.4595,147.88039)" class="globo_terraqueo">
      <path
        d="M 493.423,231.501 C 483.055,130.884 408.38,45.739 309.393,23.125 c -4.599,-1.058 -9.165,1.826 -10.214,6.426 -1.05,4.591 1.818,9.173 6.417,10.223 53.973,12.322 100.138,44.715 131.063,88.226 h -31.147 c -4.719,0 -8.533,3.823 -8.533,8.533 0,4.71 3.814,8.533 8.533,8.533 h 42.095 c 15.394,26.402 25.429,56.055 28.766,87.381 -6.537,2.799 -11.597,8.277 -13.995,15.019 H 409.6 c -4.719,0 -8.533,3.823 -8.533,8.533 0,4.71 3.814,8.533 8.533,8.533 h 52.779 c 3.533,9.916 12.911,17.067 24.021,17.067 14.114,0 25.6,-11.486 25.6,-25.6 0,-11.664 -7.885,-21.418 -18.577,-24.498 z m -7.023,33.032 c -4.71,0 -8.533,-3.831 -8.533,-8.533 0,-4.608 3.686,-8.32 8.252,-8.474 0.077,-0.009 0.137,-0.009 0.213,-0.009 0.051,-0.009 0.085,-0.034 0.136,-0.043 4.676,0.043 8.465,3.84 8.465,8.525 0,4.703 -3.823,8.534 -8.533,8.534 z"
        id="path42821-0-4-4-7" />
      <path
        d="m 28.757,217.225 c 0.589,0.119 1.178,0.179 1.749,0.179 3.959,0 7.509,-2.765 8.354,-6.793 3.516,-16.922 9.122,-33.314 16.461,-48.922 1.442,0.256 2.901,0.444 4.412,0.444 14.114,0 25.6,-11.486 25.6,-25.6 0,-14.114 -11.486,-25.6 -25.6,-25.6 -14.114,0 -25.6,11.486 -25.6,25.6 0,6.391 2.44,12.177 6.323,16.666 -8.201,17.186 -14.421,35.268 -18.313,53.931 -0.963,4.616 2.006,9.139 6.614,10.095 z M 59.733,128 c 4.71,0 8.533,3.831 8.533,8.533 0,4.702 -3.823,8.533 -8.533,8.533 -4.71,0 -8.533,-3.831 -8.533,-8.533 0,-4.702 3.823,-8.533 8.533,-8.533 z"
        id="path42823-40-1-8-1" />
      <path
        d="M 206.251,472.192 C 114.68,451.217 45.56,372.557 35.627,279.552 44.766,275.644 51.2,266.556 51.2,256 51.2,241.886 39.714,230.4 25.6,230.4 11.486,230.4 0,241.886 0,256 c 0,11.665 7.885,21.419 18.577,24.499 10.359,100.54 84.958,185.677 183.859,208.333 0.64,0.145 1.28,0.213 1.911,0.213 3.891,0 7.407,-2.671 8.311,-6.63 1.051,-4.591 -1.816,-9.173 -6.407,-10.223 z M 25.779,264.499 c -0.043,0 -0.077,-0.017 -0.111,-0.017 -0.051,0.009 -0.085,0.034 -0.137,0.043 -4.676,-0.043 -8.465,-3.84 -8.465,-8.525 0,-4.702 3.823,-8.533 8.533,-8.533 4.71,0 8.533,3.831 8.533,8.533 0.001,4.642 -3.736,8.397 -8.353,8.499 z"
        id="path42825-7-3-5-1" />
      <path
        d="m 483.226,294.827 c -4.685,-0.964 -9.139,1.997 -10.103,6.613 -4.881,23.467 -13.534,45.474 -25.156,65.493 h -42.453 c -4.719,0 -8.533,3.823 -8.533,8.533 0,4.71 3.814,8.533 8.533,8.533 h 31.522 c -34.79,48.973 -88.866,82.927 -150.17,91.529 18.731,-14.754 44.698,-39.441 66.253,-75.025 1.707,0.367 3.473,0.563 5.282,0.563 14.114,0 25.6,-11.486 25.6,-25.6 0,-7.834 -3.618,-14.78 -9.182,-19.482 11.708,-31.189 17.715,-64.768 17.715,-99.985 0,-35.977 -5.675,-69.82 -16.734,-100.796 5.018,-4.676 8.201,-11.29 8.201,-18.671 0,-14.114 -11.486,-25.6 -25.6,-25.6 -1.084,0 -2.125,0.188 -3.174,0.324 -24.201,-41.233 -54.707,-67.038 -74.163,-80.469 0.358,-1.673 0.538,-3.413 0.538,-5.188 C 281.6,11.486 270.114,0 256,0 244.386,0 234.667,7.825 231.543,18.441 173.457,24.354 119.91,51.098 80.137,94.353 c -3.191,3.465 -2.961,8.866 0.503,12.049 1.647,1.51 3.712,2.253 5.777,2.253 2.295,0 4.599,-0.922 6.281,-2.756 C 127.787,67.746 174.413,43.426 225.212,36.386 203.17,53.709 172.322,83.644 149.564,128 h -42.897 c -4.719,0 -8.533,3.823 -8.533,8.533 0,4.71 3.814,8.533 8.533,8.533 h 34.91 c -12.271,28.732 -20.685,62.763 -21.777,102.4 h -43 c -4.719,0 -8.533,3.823 -8.533,8.533 0,4.71 3.814,8.533 8.533,8.533 h 42.982 c 1.007,39.97 8.721,73.975 20.198,102.4 h -33.314 c -4.719,0 -8.533,3.823 -8.533,8.533 0,4.71 3.814,8.533 8.533,8.533 h 40.917 c 24.917,50.825 60.672,81.596 83.345,97.229 -0.35,1.673 -0.529,3.396 -0.529,5.171 0,14.114 11.486,25.6 25.6,25.6 11.665,0 21.419,-7.885 24.491,-18.568 102.656,-10.539 188.237,-87.04 209.348,-188.518 0.965,-4.607 -2.004,-9.13 -6.612,-10.085 z M 358.4,384 c -4.71,0 -8.533,-3.831 -8.533,-8.533 0,-4.702 3.823,-8.533 8.533,-8.533 4.71,0 8.533,3.831 8.533,8.533 0,4.702 -3.823,8.533 -8.533,8.533 z m 0,-256 c 4.71,0 8.533,3.831 8.533,8.533 0,4.702 -3.823,8.533 -8.533,8.533 -4.71,0 -8.533,-3.831 -8.533,-8.533 0,-4.702 3.823,-8.533 8.533,-8.533 z M 256,17.067 c 4.71,0 8.533,3.831 8.533,8.533 0,4.702 -3.823,8.533 -8.533,8.533 -4.651,0 -8.414,-3.746 -8.499,-8.38 0,-0.026 0.009,-0.051 0.009,-0.085 0,-0.043 -0.026,-0.068 -0.034,-0.111 0.025,-4.684 3.831,-8.49 8.524,-8.49 z M 264.533,256 c 0,4.702 -3.823,8.533 -8.533,8.533 -4.71,0 -8.533,-3.831 -8.533,-8.533 0,-4.702 3.823,-8.533 8.533,-8.533 4.71,0 8.533,3.831 8.533,8.533 z M 163.046,376.644 c 0.051,-0.401 0.239,-0.759 0.239,-1.178 0,-2.978 -1.621,-5.478 -3.934,-6.997 C 145.894,338.312 136.533,301.286 136.533,256 c 0,-46.464 10.812,-84.949 26.069,-116.122 0.009,-0.017 0.009,-0.026 0.017,-0.043 23.211,-47.428 56.67,-77.892 78.063,-93.85 2.048,1.545 4.318,2.765 6.784,3.635 V 128 h -59.733 c -4.719,0 -8.533,3.823 -8.533,8.533 0,4.71 3.814,8.533 8.533,8.533 h 59.733 v 86.904 c -7.236,2.577 -12.919,8.269 -15.488,15.497 h -69.845 c -4.719,0 -8.533,3.823 -8.533,8.533 0,4.71 3.814,8.533 8.533,8.533 h 69.845 c 2.569,7.228 8.252,12.919 15.488,15.488 v 86.912 h -59.733 c -4.719,0 -8.533,3.823 -8.533,8.533 0,4.71 3.814,8.533 8.533,8.533 h 59.733 v 78.37 c -2.799,0.998 -5.333,2.466 -7.595,4.309 -21.102,-14.693 -53.844,-43.237 -76.825,-90.034 z M 256,494.933 c -4.71,0 -8.533,-3.831 -8.533,-8.533 0,-4.702 3.823,-8.533 8.533,-8.533 4.651,0 8.414,3.746 8.499,8.38 0,0.026 -0.009,0.051 -0.009,0.085 0,0.043 0.026,0.068 0.034,0.119 -0.033,4.677 -3.831,8.482 -8.524,8.482 z m 15.309,-28.928 c -2.048,-1.536 -4.318,-2.756 -6.776,-3.635 V 280.03 C 274.44,276.489 281.6,267.111 281.6,256 c 0,-11.111 -7.159,-20.489 -17.067,-24.03 V 49.63 c 2.79,-0.998 5.325,-2.458 7.578,-4.301 17.971,12.527 45.619,36.19 67.806,73.583 -2.458,2.569 -4.326,5.666 -5.538,9.088 h -48.512 c -4.719,0 -8.533,3.823 -8.533,8.533 0,4.71 3.814,8.533 8.533,8.533 h 48.512 c 3.533,9.916 12.911,17.067 24.021,17.067 0.58,0 1.126,-0.137 1.69,-0.171 9.293,26.394 14.396,55.074 15.198,85.504 H 307.2 c -4.719,0 -8.533,3.823 -8.533,8.533 0,4.71 3.814,8.533 8.533,8.533 h 68.079 c -0.879,30.012 -6.391,58.667 -16.401,85.385 -0.162,-0.009 -0.307,-0.051 -0.478,-0.051 -11.11,0 -20.489,7.151 -24.021,17.067 h -48.512 c -4.719,0 -8.533,3.823 -8.533,8.533 0,4.71 3.814,8.533 8.533,8.533 h 48.512 c 0.981,2.765 2.423,5.291 4.25,7.526 -22.273,36.814 -49.639,61.279 -67.32,74.48 z"
        id="path42827-1-1-99-2" />
    </g>
    <path
      d="m 142.77566,160.23457 c -1.08244,-2.70327 -2.34595,-3.41574 -2.34595,-4.76393 v -1.58798 h 0.26501 c 0.14644,3.6e-4 0.26535,-0.11827 0.26532,-0.2647 v -0.52932 c -4e-5,-0.1464 -0.11892,-0.26496 -0.26532,-0.2646 h -2.64662 c -0.14644,-4.1e-4 -0.26538,0.11816 -0.26541,0.2646 v 0.52932 c -3e-5,0.14647 0.11893,0.26511 0.26541,0.2647 h 0.2649 v 1.58798 c 0,1.34818 -1.26335,2.06066 -2.34594,4.76393 -0.34474,0.86011 -1.23001,2.11729 3.40457,2.11729 4.63429,0 3.74927,-1.25717 3.40466,-2.11729 z"
      class="fondo_matraz" />
    <path
      d="m 142.77541,160.23468 c -1.08252,-2.70325 -2.346,-3.41575 -2.346,-4.7639 v -1.58797 h 0.2653 a 0.26465956,0.26465956 0 0 0 0.26557,-0.26468 v -0.5293 a 0.26465956,0.26465956 0 0 0 -0.26557,-0.26467 h -2.64659 a 0.26465956,0.26465956 0 0 0 -0.26559,0.26467 v 0.5293 a 0.26465956,0.26465956 0 0 0 0.26559,0.26468 h 0.26467 v 1.58797 c 0,1.34815 -1.26329,2.06065 -2.34589,4.7639 -0.34464,0.86004 -1.23002,2.11723 3.40451,2.11723 4.63426,0 3.74924,-1.25713 3.40462,-2.11723 z m -0.85566,0.92679 c -0.37162,0.11098 -1.11111,0.2377 -2.54867,0.2377 -1.43753,0 -2.17708,-0.12639 -2.54873,-0.2377 -0.13587,-0.0384 -0.1825,-0.19251 -0.13949,-0.33256 0.11248,-0.35475 0.33644,-0.96757 0.74647,-1.65198 1.00372,-1.67215 2.04471,0.26314 2.91123,0.26314 0.86625,0 0.62825,-0.8263 0.96523,-0.26314 a 8.1266335,8.1266335 0 0 1 0.74647,1.65198 c 0.0507,0.14041 -0.006,0.29255 -0.13952,0.33256 z"
      class="matraz" />
  </g>
  <!--
    listado de tags y estilos que necesita en caso de ser usado:
    .stop_inicio {
      stop-color:;
    }
    .stop_final {
      stop-color:;
    }
    .circulo {
      /*con gradiente*/
      mix-blend-mode:normal;
      fill:url(#radialGradient76210-7-6-6);
      filter:url(#filter84299);
      /*sin gradiente*/
      fill:;
    }
    .globo_terraqueo {
      fill:;
    }
    .fondo_matraz {
      fill:;
    }
    .matraz {
      fill:;
    }
  -->
</svg>