<?xml version='1.0' encoding='iso-8859-1'?>
<!DOCTYPE svg PUBLIC '-//W3C//DTD SVG 1.1//EN' 'http://www.w3.org/Graphics/SVG/1.1/DTD/svg11.dtd'>
<!-- Uploaded to: SVG Repo, www.svgrepo.com, Generator: SVG Repo Mixer Tools -->
<svg version="1.1" xmlns="http://www.w3.org/2000/svg" viewBox="0 0 421 421" xmlns:xlink="http://www.w3.org/1999/xlink">
  <path d="m334.825,175.015h-19.615v-70.305c0-57.737-46.972-104.71-104.71-104.71s-104.71,46.973-104.71,104.71v70.305h-19.615c-4.143,0-7.5,3.358-7.5,7.5v230.985c0,4.142 3.357,7.5 7.5,7.5h248.649c4.143,0 7.5-3.358 7.5-7.5v-230.985c0.001-4.142-3.357-7.5-7.499-7.5zm-214.034-70.305c0-49.466 40.244-89.71 89.71-89.71s89.71,40.244 89.71,89.71v70.305h-24v-70.305c0-36.233-29.478-65.71-65.71-65.71s-65.71,29.477-65.71,65.71v70.305h-24v-70.305zm140.419,70.305h-101.42v-70.305c0-27.962 22.748-50.71 50.71-50.71s50.71,22.748 50.71,50.71v70.305zm66.115,230.985h-60.225v-12.893l20.402-20.402c2.2,0.834 4.574,1.312 7.062,1.312 11.028,0 20-8.972 20-20s-8.972-20-20-20-20,8.972-20,20c0,3.039 0.701,5.911 1.919,8.493l-22.188,22.188c-1.406,1.406-2.196,3.314-2.196,5.303v16h-17.5v-98.893l13.857-13.857c2.491,1.116 5.242,1.75 8.143,1.75 11.028,0 20-8.972 20-20s-8.972-20-20-20-20,8.972-20,20c0,2.631 0.524,5.139 1.451,7.442l-16.255,16.255c-1.406,1.406-2.196,3.314-2.196,5.303v102h-18.2v-142.211c0-1.989-0.79-3.896-2.195-5.302l-15.161-15.169c1.36-2.699 2.144-5.736 2.144-8.959 0-11.028-8.972-20-20-20s-20,8.972-20,20 8.972,20 20,20c2.299,0 4.5-0.409 6.557-1.127l13.655,13.662v139.105h-17.5v-56c0-1.989-0.79-3.897-2.196-5.303l-22.187-22.187c1.218-2.582 1.919-5.454 1.919-8.493 0-11.028-8.972-20-20-20s-20,8.972-20,20 8.972,20 20,20c2.488,0 4.862-0.478 7.062-1.312l20.402,20.402v52.893h-60.224v-215.985h233.649v215.985zm-37.759-51.984c0-2.757 2.243-5 5-5s5,2.243 5,5-2.243,5-5,5-5-2.243-5-5zm-37.965-79.016c0-2.757 2.243-5 5-5s5,2.243 5,5-2.243,5-5,5-5-2.243-5-5zm-85.412-35.64c-2.757,0-5-2.243-5-5s2.243-5 5-5 5,2.243 5,5-2.243,5-5,5zm-39.752,79.656c-2.757,0-5-2.243-5-5s2.243-5 5-5 5,2.243 5,5-2.243,5-5,5z"/>
</svg>