<?xml version="1.0" encoding="utf-8"?>
<!-- Uploaded to: SVG Repo, www.svgrepo.com, Generator: SVG Repo Mixer Tools -->
<svg viewBox="0 0 1024 1024" version="1.1" xmlns="http://www.w3.org/2000/svg">
  <path
    d="M223.808 257.088a32 32 0 0 1 0-64h63.488a32 32 0 0 1 0 64h-63.488z m0 127.296a32 32 0 1 1 0-64h63.488a32 32 0 0 1 0 64h-63.488z m0 127.616a32 32 0 0 1 0-64h63.488a32 32 0 0 1 0 64h-63.488z m159.68-448a64 64 0 0 1 64 64v768a64 64 0 0 1-64 64H128a64 64 0 0 1-64-64V128a64 64 0 0 1 64-64h255.488z m0 800v-704a32 32 0 0 0-32-32H160a32 32 0 0 0-32 32v704a32 32 0 0 0 32 32h191.552a32 32 0 0 0 32-32z m-191.68-159.68a63.872 63.872 0 1 1 127.68 0 63.872 63.872 0 0 1-127.68 0z m542.464-447.232a32 32 0 1 1 0-64h63.424a32 32 0 1 1 0 64h-63.424z m0 127.296a32 32 0 1 1 0-64h63.424a32 32 0 1 1 0 64h-63.424z m0 127.616a32 32 0 1 1 0-64h63.424a32 32 0 1 1 0 64h-63.424z m159.552-448a64 64 0 0 1 64 64v768a64 64 0 0 1-64 64H638.336a64 64 0 0 1-64-64V128a64 64 0 0 1 64-64h255.488z m0 800v-704a32 32 0 0 0-32-32h-191.488a32 32 0 0 0-32 32v704a32 32 0 0 0 32 32h191.552a32 32 0 0 0 32-32z m-191.616-159.68a63.872 63.872 0 1 1 127.68 0 63.872 63.872 0 0 1-127.68 0z"
  stroke-width="0"/>
</svg>