<?xml version="1.0" encoding="iso-8859-1"?>
<!-- Uploaded to: SVG Repo, www.svgrepo.com, Generator: SVG Repo Mixer Tools -->
<svg stroke="none" stroke-width="0" version="1.1" id="Layer_1" xmlns="http://www.w3.org/2000/svg"
	xmlns:xlink="http://www.w3.org/1999/xlink" viewBox="0 0 511.984 511.984" xml:space="preserve">

	<path d="M465.521,31.999H46.479C20.863,31.999,0,52.686,0,78.142v35.727c0,25.439,20.863,46.127,46.479,46.127h419.059
			c25.599,0,46.447-20.687,46.447-46.127V78.142C511.984,52.686,491.137,31.999,465.521,31.999z M479.985,113.868
			c0,7.792-6.48,14.128-14.464,14.128H46.479c-7.984,0-14.48-6.336-14.48-14.128V78.142c0-7.808,6.496-14.144,14.48-14.144h419.059
			c7.968,0,14.448,6.336,14.448,14.144V113.868z" />
	<path d="M351.989,79.998H111.997c-8.848,0-16,7.168-16,16s7.152,16,16,16h239.992c8.848,0,16-7.168,16-16
			S360.837,79.998,351.989,79.998z" />
	<path d="M75.822,84.941c-5.92-6.08-16.64-6.08-22.719-0.16c-2.896,3.04-4.64,7.2-4.64,11.36c0,4.32,1.76,8.48,4.8,11.36
			c2.864,2.88,7.04,4.64,11.2,4.64c4.32,0,8.32-1.76,11.36-4.64c3.024-3.04,4.64-7.04,4.64-11.36
			C80.461,91.981,78.846,87.821,75.822,84.941z" />
	<path d="M460.306,84.941c-5.92-6.08-16.815-6.08-22.735-0.16c-2.88,3.04-4.64,7.2-4.64,11.36c0,4.32,1.76,8.48,4.64,11.36
			c2.896,2.88,7.04,4.64,11.36,4.64c4.16,0,8.32-1.76,11.2-4.64c3.056-2.88,4.8-7.04,4.8-11.36
			C464.93,91.981,463.186,87.821,460.306,84.941z" />
	<path
		d="M411.971,84.781c-6.08-5.92-16.479-5.92-22.719,0c-2.88,3.04-4.64,7.2-4.64,11.36s1.76,8.32,4.64,11.36
			c3.04,2.88,7.2,4.64,11.36,4.64c4.32,0,8.32-1.76,11.36-4.64c3.04-3.04,4.64-7.2,4.64-11.36S415.011,87.821,411.971,84.781z" />
	<path
		d="M465.025,191.994H303.99c-8.848,0-15.999,7.168-15.999,16s7.152,15.999,15.999,15.999h161.035
			c7.344,0,14.959,4.848,14.959,12.976v36.383c0,7.792-6.992,14.64-14.959,14.64h-97.037c-8.848,0-16,7.168-16,15.999
			s7.152,16,16,16h97.037c25.455,0,46.958-21.359,46.958-46.639v-36.383C511.984,212.169,490.929,191.994,465.025,191.994z" />
	<path
		d="M207.994,191.994H46.703C20.511,191.994,0,211.737,0,236.969v36.383c0,25.279,21.423,46.639,46.751,46.639l103.885,0.144
			c8.832,0,15.983-7.152,15.999-15.984c0.016-8.832-7.136-16-15.983-16.016l-103.885-0.144c-7.856,0-14.768-6.848-14.768-14.64
			v-36.383c0-8.128,7.472-12.976,14.703-12.976h161.291c8.848,0,15.999-7.168,15.999-15.999S216.841,191.994,207.994,191.994z" />
	<path d="M175.995,239.993h-63.998c-8.848,0-16,7.168-16,16s7.152,16,16,16h63.998c8.848,0,16-7.168,16-16
			S184.842,239.993,175.995,239.993z" />
	<path d="M75.822,244.456c-5.92-5.92-16.64-5.92-22.719,0c-2.896,3.04-4.64,7.2-4.64,11.36c0,4.32,1.744,8.32,4.64,11.36
			c3.024,2.88,7.2,4.64,11.36,4.64c4.32,0,8.32-1.76,11.36-4.64c3.024-3.04,4.64-7.04,4.64-11.36
			C80.461,251.656,78.846,247.496,75.822,244.456z" />
	<path
		d="M460.306,244.456c-5.92-5.92-16.815-5.92-22.735,0c-2.88,3.04-4.64,7.2-4.64,11.36s1.76,8.32,4.64,11.36
			c3.04,2.88,7.04,4.64,11.36,4.64c4.16,0,8.32-1.76,11.2-4.64c3.056-3.04,4.8-7.2,4.8-11.36S463.186,247.496,460.306,244.456z" />
	<path d="M411.971,244.456c-5.92-5.92-16.639-5.92-22.719,0c-2.88,3.04-4.64,7.2-4.64,11.36c0,4.32,1.76,8.32,4.64,11.36
			c3.04,2.88,7.2,4.64,11.36,4.64c4.32,0,8.32-1.76,11.36-4.64c3.04-3.04,4.64-7.04,4.64-11.36
			C416.611,251.656,415.011,247.496,411.971,244.456z" />
	<path d="M465.521,351.989H46.479C20.863,351.989,0,372.676,0,398.132v35.711c0,25.439,20.863,46.143,46.479,46.143h419.059
			c25.599,0,46.447-20.703,46.447-46.143v-35.711C511.984,372.676,491.137,351.989,465.521,351.989z M479.985,433.842
			c0,7.792-6.48,14.144-14.464,14.144H46.479c-7.984,0-14.48-6.352-14.48-14.144v-35.711c0-7.808,6.496-14.144,14.48-14.144h419.059
			c7.968,0,14.448,6.336,14.448,14.144V433.842z" />
	<path d="M351.989,399.988H111.997c-8.848,0-16,7.168-16,16s7.152,16,16,16h239.992c8.848,0,16-7.168,16-16
			S360.837,399.988,351.989,399.988z" />
	<path
		d="M75.822,403.811c-5.92-5.92-16.799-5.92-22.719,0c-2.896,3.04-4.64,7.04-4.64,11.36c0,4.16,1.744,8.32,4.64,11.36
			c3.024,2.88,7.2,4.64,11.36,4.64c4.32,0,8.32-1.76,11.36-4.64c3.024-3.04,4.64-7.2,4.64-11.36S78.846,406.851,75.822,403.811z" />
	<path
		d="M460.306,403.811c-5.92-5.92-16.815-5.92-22.735,0c-2.88,3.04-4.64,7.04-4.64,11.36c0,4.16,1.76,8.32,4.64,11.2
			c3.04,3.04,7.04,4.8,11.36,4.8c4.16,0,8.32-1.76,11.2-4.64c3.056-3.04,4.8-7.2,4.8-11.36S463.186,406.851,460.306,403.811z" />
	<path d="M411.971,403.811c-5.92-5.92-16.639-5.92-22.719,0c-2.88,3.04-4.64,7.04-4.64,11.36c0,4.16,1.76,8.32,4.64,11.36
			c3.04,2.88,7.2,4.64,11.36,4.64c4.32,0,8.32-1.76,11.36-4.64c3.04-3.04,4.64-7.2,4.64-11.36
			C416.611,410.851,415.011,406.691,411.971,403.811z" />
	<path d="M378.228,312.95l-90.349-149.227c-7.76-12.768-19.407-20.095-31.935-20.095c-12.624,0-24.335,7.408-32.127,20.335
			L133.98,312.918c-7.952,13.184-8.96,27.055-2.752,38.063c6.096,10.8,18.143,17.008,33.071,17.008h183.674
			c14.927,0,26.975-6.208,33.071-17.008C387.236,339.973,386.212,326.102,378.228,312.95z M347.973,335.974H164.299
			c-2.848,0-4.512-0.528-4.96-0.528c-0.096,0-0.144,0.016-0.144,0.048c-0.096-0.48,0.096-2.624,2.176-6.08l89.837-148.955
			c2.336-3.872,4.352-4.832,4.72-4.864c0.352,0.032,2.304,0.976,4.608,4.752l90.317,149.147c2.016,3.328,2.256,5.44,2.528,5.44
			h0.016C353.077,335.206,351.381,335.974,347.973,335.974z" />
	<path d="M255.992,207.994c-8.848,0-16,7.168-16,15.999v31.999c0,8.832,7.152,16,16,16s16-7.168,16-16v-31.999
			C271.992,215.161,264.84,207.994,255.992,207.994z" />
	<path d="M267.496,292.775c-6.08-5.92-16.959-5.76-22.719,0c-3.024,3.04-4.64,7.2-4.64,11.36c0,4.16,1.616,8.32,4.64,11.36
			c2.896,2.88,7.04,4.64,11.36,4.64c4.176,0,8.32-1.76,11.36-4.64c2.896-3.04,4.64-7.2,4.64-11.36S270.392,295.815,267.496,292.775z
			" />
</svg>